<svg width="663" height="119" viewBox="0 0 663 119" fill="none" xmlns="http://www.w3.org/2000/svg">
<path d="M19.9445 104.928C13.2032 104.928 8.50983 103.136 5.8645 99.552C3.21917 95.968 1.8965 90.6773 1.8965 83.68C1.8965 74.2933 4.62717 65.0773 10.0885 56.032C3.77383 52.0213 0.6165 46.0907 0.6165 38.24C0.6165 28.768 4.79783 20.3627 13.1605 13.024C22.5472 4.74666 34.6645 0.607994 49.5125 0.607994C54.2058 0.607994 58.3445 0.906662 61.9285 1.504C65.5125 2.016 68.9258 2.82666 72.1685 3.936C75.4965 5.04533 79.0378 6.45333 82.7925 8.16C86.5472 9.86666 90.9845 11.9147 96.1045 14.304C108.563 19.936 117.694 22.752 123.497 22.752C126.313 22.752 128.745 22.112 130.793 20.832C132.841 19.4667 133.865 17.8027 133.865 15.84C133.865 14.56 133.31 13.408 132.201 12.384C131.603 11.5307 131.305 10.9333 131.305 10.592C131.305 10.4213 131.39 10.336 131.561 10.336C132.243 10.336 133.182 11.0613 134.377 12.512C135.571 13.9627 136.169 15.5413 136.169 17.248C136.169 19.1253 135.443 20.7467 133.993 22.112C132.627 23.4773 130.835 24.544 128.617 25.312C126.483 25.9947 124.265 26.336 121.961 26.336C115.561 26.336 106.131 23.4773 93.6725 17.76C89.0645 15.6267 85.0965 13.8347 81.7685 12.384C78.4405 10.848 75.3685 9.61066 72.5525 8.672C69.7365 7.64799 66.9205 6.92266 64.1045 6.49599C61.3738 5.984 58.3018 5.728 54.8885 5.728C37.2245 5.728 23.3152 11.4453 13.1605 22.88C12.0512 24.0747 10.9845 25.824 9.9605 28.128C8.9365 30.3467 8.08317 32.6933 7.4005 35.168C6.80317 37.6427 6.5045 39.8613 6.5045 41.824C6.5045 46.7733 8.25383 50.6133 11.7525 53.344C14.4832 49.3333 17.6405 45.7493 21.2245 42.592C24.8938 39.3493 28.8192 36.7893 33.0005 34.912C37.1818 33.0347 41.4912 32.096 45.9285 32.096C53.6085 32.096 57.4485 35.0827 57.4485 41.056C57.4485 48.224 53.2245 56.032 44.7765 64.48C36.4138 72.8427 28.6485 77.024 21.4805 77.024C16.8725 77.024 14.5685 75.0613 14.5685 71.136C14.5685 69.7707 14.9098 68.576 15.5925 67.552C16.3605 66.528 17.2565 66.144 18.2805 66.4C18.2805 66.8267 18.2378 67.3813 18.1525 68.064C18.0672 68.6613 18.0245 69.088 18.0245 69.344C18.0245 70.624 19.9872 71.264 23.9125 71.264C29.7152 71.264 35.9445 68.192 42.6005 62.048C45.8432 58.976 48.6165 55.5627 50.9205 51.808C53.3098 48.0533 54.5045 44.5547 54.5045 41.312C54.5045 37.472 52.0298 35.552 47.0805 35.552C43.4965 35.552 39.8698 36.5333 36.2005 38.496C32.6165 40.4587 29.2032 43.0187 25.9605 46.176C22.7178 49.248 19.7738 52.5333 17.1285 56.032C17.5552 56.2027 18.1098 56.3733 18.7925 56.544C19.4752 56.7147 20.2432 56.8853 21.0965 57.056L28.7765 57.312C32.5312 57.4827 34.4085 57.9093 34.4085 58.592C34.4085 59.7867 32.7018 60.384 29.2885 60.384C27.7525 60.384 26.2592 60.3413 24.8085 60.256C23.4432 60.1707 22.1205 60.0427 20.8405 59.872C19.9018 59.7013 18.9632 59.5307 18.0245 59.36C17.1712 59.104 16.3178 58.8053 15.4645 58.464C8.89383 68.5333 5.6085 77.792 5.6085 86.24C5.6085 97.1627 9.8325 102.624 18.2805 102.624C27.8378 102.624 37.7792 95.968 48.1045 82.656L73.1925 45.28C82.3232 31.712 90.4725 24.7147 97.6405 24.288L102.505 25.44C104.041 26.208 104.809 27.744 104.809 30.048C104.809 31.2427 104.382 31.84 103.529 31.84C103.273 31.84 102.633 31.7547 101.609 31.584C100.67 31.328 99.9445 31.2 99.4325 31.2C93.3738 31.2 85.8218 37.5573 76.7765 50.272L51.3045 85.856C40.3818 98.5707 29.9285 104.928 19.9445 104.928ZM91.5135 92.64C89.4655 92.64 87.4175 91.9147 85.3695 90.464C83.3215 89.0133 82.1695 87.3067 81.9135 85.344C81.0602 78.7733 85.1988 70.9653 94.3295 61.92C103.375 52.8747 111.524 48.352 118.778 48.352C120.74 48.352 122.276 48.8213 123.386 49.76C123.983 50.3573 124.41 51.168 124.666 52.192C125.007 53.216 125.263 53.728 125.434 53.728C125.775 53.728 126.074 53.6853 126.33 53.6C126.586 53.4293 126.884 53.344 127.226 53.344C128.25 53.344 129.146 53.728 129.914 54.496C130.682 55.264 131.108 55.9467 131.194 56.544C131.279 56.7147 128.548 60.9387 123.002 69.216C117.455 77.3227 114.938 82.8267 115.45 85.728C115.876 87.6907 116.815 88.672 118.266 88.672C122.703 88.672 130.81 81.3333 142.586 66.656C142.842 66.3147 143.098 66.144 143.354 66.144C143.78 66.144 143.994 66.4427 143.994 67.04C143.994 67.7227 143.61 68.576 142.842 69.6C132.004 84.192 123.684 91.488 117.882 91.488C117.113 91.488 116.388 91.36 115.706 91.104C111.951 89.6533 110.074 86.8373 110.074 82.656C110.074 81.2053 110.244 79.7547 110.586 78.304L102.65 85.984C100.26 88.3733 98.0842 90.08 96.1215 91.104C94.2442 92.128 92.7082 92.64 91.5135 92.64ZM90.3615 89.824C95.3108 89.824 102.052 84.4053 110.586 73.568L124.154 54.88C123.471 53.6853 122.362 53.088 120.826 53.088C115.62 53.088 108.58 57.2693 99.7055 65.632C90.4895 74.1653 86.3508 81.2053 87.2895 86.752C87.7162 88.8 88.7402 89.824 90.3615 89.824ZM150.408 92.256C146.397 92.256 143.41 90.9333 141.448 88.288C139.57 85.6427 138.034 81.9733 136.84 77.28C135.303 78.816 134.237 79.584 133.639 79.584C133.213 79.584 132.999 79.2427 132.999 78.56C132.999 78.048 133.213 77.5787 133.639 77.152C133.639 77.152 134.706 75.8293 136.84 73.184C139.058 70.5387 142.77 66.8267 147.976 62.048L164.104 46.944C166.322 44.8107 168.072 43.1893 169.352 42.08C170.717 40.9707 171.698 40.416 172.296 40.416C175.026 40.416 176.392 41.44 176.392 43.488C176.392 44.512 175.837 45.7067 174.728 47.072C173.874 48.096 173.234 48.9067 172.808 49.504C172.466 50.016 172.253 50.3147 172.168 50.4C170.632 53.0453 169.224 57.7813 167.944 64.608C167.005 69.6427 166.194 73.7813 165.512 77.024C164.829 80.2667 164.274 82.6133 163.848 84.064C167.432 83.9787 170.973 82.8693 174.472 80.736C177.97 78.6027 181.725 75.104 185.736 70.24C185.906 70.0693 186.162 69.8133 186.504 69.472C186.845 69.1307 187.186 68.96 187.528 68.96C188.04 68.96 188.296 69.1733 188.296 69.6C188.296 70.0267 188.168 70.4533 187.912 70.88C187.656 71.3067 187.4 71.6907 187.144 72.032C184.498 75.1893 182.024 77.792 179.72 79.84C177.416 81.8027 174.984 83.3813 172.424 84.576C169.863 85.6853 166.834 86.624 163.336 87.392L159.24 90.08C158.13 90.848 156.808 91.4027 155.272 91.744C153.736 92.0853 152.114 92.256 150.408 92.256ZM151.944 85.728C153.906 85.728 155.528 85.2587 156.808 84.32C157.746 83.808 158.642 82.4 159.496 80.096C160.434 77.7067 161.33 74.7627 162.184 71.264C162.866 68.2773 163.378 65.376 163.72 62.56C164.146 59.6587 164.53 56.8853 164.872 54.24L165.384 49.888C163.421 51.3387 160.946 53.4293 157.96 56.16C154.973 58.8907 152.029 61.7493 149.128 64.736C146.226 67.7227 144.349 69.9413 143.496 71.392C142.642 72.7573 142.173 73.7813 142.088 74.464C141.746 77.8773 142.557 80.608 144.52 82.656C146.568 84.704 149.042 85.728 151.944 85.728ZM207.928 93.536C205.112 93.536 202.594 92.7253 200.376 91.104C198.242 89.4827 196.365 87.4347 194.744 84.96C193.208 82.4853 191.885 80.0107 190.776 77.536C190.178 78.304 189.538 79.2853 188.856 80.48C188.258 81.6747 187.533 83.0827 186.68 84.704L182.712 92.64C179.639 91.4453 178.103 89.824 178.103 87.776C178.103 84.1067 183.693 73.9093 194.872 57.184C205.709 40.9707 213.176 31.4133 217.272 28.512C217.698 28.256 218.381 28.128 219.319 28.128C221.965 28.128 223.288 28.8107 223.288 30.176C223.288 30.432 222.69 31.3707 221.496 32.992C220.301 34.528 218.808 36.4053 217.016 38.624C215.224 40.8427 213.389 43.104 211.512 45.408C209.72 47.6267 208.141 49.5893 206.776 51.296C205.41 52.9173 204.642 53.9413 204.472 54.368C212.237 50.3573 218.424 48.352 223.032 48.352C224.824 48.352 226.445 48.864 227.896 49.888C229.432 50.912 230.626 52.1493 231.48 53.6C232.333 55.0507 232.674 56.4587 232.504 57.824C231.821 62.688 228.408 66.6987 222.264 69.856C217.314 72.5013 212.792 73.824 208.696 73.824C204.258 73.824 201.186 73.2693 199.48 72.16C198.968 72.0747 198.541 72.2027 198.2 72.544C197.944 72.8 197.901 73.2267 198.072 73.824C200.461 84.4053 204.429 89.696 209.976 89.696C212.706 89.696 216.333 88.1173 220.856 84.96C225.464 81.8027 230.328 77.1947 235.448 71.136C236.045 70.5387 236.6 70.24 237.112 70.24C237.538 70.24 237.752 70.496 237.752 71.008C237.752 71.4347 237.453 72.0747 236.856 72.928C234.381 75.9147 231.48 79.0293 228.152 82.272C224.909 85.4293 221.538 88.1173 218.04 90.336C214.541 92.4693 211.17 93.536 207.928 93.536ZM200.503 70.496C204.344 70.496 209.378 68.9173 215.608 65.76C222.776 62.176 226.36 58.3787 226.36 54.368C226.36 53.6853 225.976 53.0027 225.208 52.32C224.44 51.6373 223.629 51.296 222.776 51.296C218.168 51.296 212.792 53.088 206.648 56.672C199.906 60.768 195.81 65.248 194.36 70.112C195.298 70.112 196.493 70.1973 197.944 70.368C199.48 70.4533 200.333 70.496 200.503 70.496ZM287.646 92.256C285.598 92.256 284.574 91.104 284.574 88.8C285.512 84.0213 287.432 78.6453 290.333 72.672C291.699 69.7707 293.064 66.912 294.43 64.096C295.88 61.28 297.288 58.4213 298.654 55.52C295.496 57.6533 292.339 60.0427 289.182 62.688C286.024 65.248 282.952 68.1493 279.966 71.392C276.467 75.1467 272.414 79.968 267.806 85.856C264.478 90.0373 262.558 92.128 262.046 92.128C260.851 92.128 259.87 91.5733 259.102 90.464C258.334 89.3547 257.95 88.416 257.95 87.648C257.95 86.5387 258.931 83.68 260.894 79.072C261.491 77.6213 262.088 76.2133 262.686 74.848C263.368 73.3973 264.008 71.9893 264.606 70.624L256.925 78.688C256.755 78.8587 256.243 79.3707 255.389 80.224C254.536 81.0773 253.853 81.504 253.341 81.504C252.915 81.504 252.701 81.2053 252.701 80.608C252.701 80.4373 252.787 80.224 252.957 79.968C253.043 79.6267 253.299 79.2427 253.725 78.816C255.005 77.536 256.328 76.1707 257.694 74.72C259.059 73.2693 260.467 71.6053 261.918 69.728C263.027 68.2773 264.606 66.144 266.654 63.328C268.787 60.4267 271.39 56.8 274.462 52.448C275.4 51.168 276.723 50.528 278.43 50.528C280.136 50.528 280.99 51.3387 280.99 52.96C280.99 53.5573 278.814 57.5253 274.462 64.864C272.243 68.7893 270.451 71.9893 269.086 74.464C267.806 76.9387 266.995 78.7733 266.654 79.968C268.531 77.92 270.75 75.616 273.31 73.056C275.955 70.496 278.984 67.6373 282.398 64.48C292.894 54.752 299.806 49.888 303.134 49.888C304.072 49.888 304.968 50.1867 305.822 50.784C306.76 51.3813 307.23 52.1493 307.23 53.088C307.23 53.5147 305.566 56.6293 302.238 62.432C298.995 68.32 297.203 71.8187 296.862 72.928C306.334 64.992 311.07 60.9813 311.07 60.896C319.091 54.6667 324.851 51.552 328.35 51.552C329.374 51.552 330.312 51.8933 331.166 52.576C332.104 53.1733 332.574 53.8987 332.574 54.752C332.574 54.9227 329.843 58.5067 324.382 65.504C318.75 72.5867 315.592 78.3893 314.91 82.912C314.568 85.984 316.147 87.52 319.646 87.52C321.779 87.52 324.766 86.1547 328.606 83.424C332.446 80.6933 336.456 76.9387 340.638 72.16C341.15 71.5627 341.704 71.008 342.302 70.496C342.899 69.8987 343.411 69.6 343.838 69.6C344.35 69.6 344.606 69.8133 344.606 70.24C344.606 70.8373 344.222 71.52 343.454 72.288C341.235 74.9333 338.59 77.664 335.518 80.48C332.531 83.296 329.544 85.6853 326.558 87.648C323.571 89.5253 320.926 90.464 318.622 90.464C312.819 90.464 309.918 87.776 309.918 82.4C309.918 80.5227 310.43 78.3467 311.454 75.872C312.478 73.312 313.502 71.008 314.526 68.96C317 64.1813 319.688 59.9573 322.59 56.288C319.859 57.6533 317 59.4453 314.014 61.664C311.112 63.8827 308.083 66.4853 304.926 69.472C297.587 76.64 292.552 83.8933 289.822 91.232C289.395 91.9147 288.67 92.256 287.646 92.256ZM346.764 92.64C344.716 92.64 342.668 91.9147 340.62 90.464C338.572 89.0133 337.419 87.3067 337.163 85.344C336.31 78.7733 340.449 70.9653 349.58 61.92C358.625 52.8747 366.774 48.352 374.028 48.352C375.99 48.352 377.526 48.8213 378.636 49.76C379.233 50.3573 379.66 51.168 379.916 52.192C380.257 53.216 380.513 53.728 380.684 53.728C381.025 53.728 381.324 53.6853 381.58 53.6C381.836 53.4293 382.134 53.344 382.476 53.344C383.5 53.344 384.396 53.728 385.164 54.496C385.932 55.264 386.358 55.9467 386.444 56.544C386.529 56.7147 383.798 60.9387 378.252 69.216C372.705 77.3227 370.188 82.8267 370.7 85.728C371.126 87.6907 372.065 88.672 373.516 88.672C377.953 88.672 386.06 81.3333 397.836 66.656C398.092 66.3147 398.348 66.144 398.604 66.144C399.03 66.144 399.244 66.4427 399.244 67.04C399.244 67.7227 398.86 68.576 398.092 69.6C387.254 84.192 378.934 91.488 373.132 91.488C372.363 91.488 371.638 91.36 370.956 91.104C367.201 89.6533 365.324 86.8373 365.324 82.656C365.324 81.2053 365.494 79.7547 365.836 78.304L357.9 85.984C355.51 88.3733 353.334 90.08 351.372 91.104C349.494 92.128 347.958 92.64 346.764 92.64ZM345.612 89.824C350.561 89.824 357.302 84.4053 365.836 73.568L379.404 54.88C378.721 53.6853 377.612 53.088 376.076 53.088C370.87 53.088 363.83 57.2693 354.956 65.632C345.74 74.1653 341.601 81.2053 342.54 86.752C342.966 88.8 343.99 89.824 345.612 89.824ZM423.578 92.256C421.274 92.256 419.652 91.616 418.714 90.336C417.775 88.9707 417.306 87.3067 417.306 85.344C417.306 80.3947 419.012 75.104 422.426 69.472L430.618 56.16C424.815 60.4267 419.055 65.76 413.338 72.16C411.802 73.8667 410.052 75.872 408.09 78.176C406.212 80.48 404.122 83.1253 401.818 86.112C398.746 90.1227 396.911 92.128 396.314 92.128C395.119 92.128 394.138 91.616 393.37 90.592C392.602 89.4827 392.218 88.5013 392.218 87.648C392.218 86.9653 392.431 85.728 392.858 83.936C393.284 82.0587 393.796 80.4373 394.394 79.072C394.991 77.6213 395.588 76.2133 396.186 74.848C396.868 73.3973 397.508 71.9893 398.106 70.624L390.425 78.688C390.255 78.8587 389.743 79.3707 388.889 80.224C388.036 81.0773 387.353 81.504 386.841 81.504C386.415 81.504 386.201 81.2053 386.201 80.608C386.201 80.4373 386.287 80.224 386.457 79.968C386.543 79.6267 386.799 79.2427 387.225 78.816C388.505 77.536 389.828 76.1707 391.194 74.72C392.559 73.2693 393.967 71.6053 395.418 69.728C396.186 68.7893 397.338 67.3813 398.874 65.504C400.41 63.5413 402.074 61.4507 403.866 59.232C405.743 57.0133 407.492 54.9653 409.114 53.088C409.54 52.4907 410.01 52.1067 410.522 51.936C411.034 51.68 411.375 51.552 411.546 51.552C413.85 51.552 415.002 52.448 415.002 54.24C415.002 54.752 414.874 55.264 414.618 55.776C406.938 66.3573 402.33 74.4213 400.794 79.968C410.692 70.0693 418.628 62.6453 424.602 57.696C430.66 52.6613 434.97 50.144 437.53 50.144C438.895 50.144 439.919 50.3573 440.602 50.784C441.37 51.2107 441.754 52.0213 441.754 53.216C441.754 53.6427 441.711 53.984 441.626 54.24C441.37 54.8373 439.62 57.2267 436.378 61.408C434.415 63.7973 432.666 65.9733 431.13 67.936C429.679 69.8987 428.484 71.6053 427.546 73.056C426.01 75.4453 424.858 77.7067 424.09 79.84C423.322 81.888 422.938 83.6373 422.938 85.088C422.938 85.6853 423.023 86.4107 423.194 87.264C423.364 88.1173 423.876 88.544 424.729 88.544C426.692 88.544 429.764 86.8373 433.946 83.424C435.908 81.7173 437.743 80.0107 439.45 78.304C441.156 76.512 442.778 74.7627 444.314 73.056C444.655 72.7147 445.21 72.0747 445.978 71.136C446.746 70.112 447.215 69.6 447.386 69.6C447.727 69.6 447.898 69.9413 447.898 70.624C447.898 70.9653 447.684 71.5627 447.258 72.416C446.916 73.184 446.532 73.7813 446.106 74.208C445.167 75.3173 443.759 76.8533 441.882 78.816C440.09 80.7787 438.042 82.784 435.738 84.832C433.519 86.88 431.343 88.6293 429.21 90.08C427.076 91.5307 425.199 92.256 423.578 92.256ZM449.091 93.664C446.36 93.664 443.885 92.8107 441.666 91.104C439.448 89.312 438.339 86.9653 438.339 84.064C438.339 78.0053 442.051 71.0933 449.475 63.328C457.069 55.4773 463.853 51.552 469.827 51.552C471.789 51.552 473.368 52.1067 474.562 53.216C475.843 54.24 476.483 55.52 476.483 57.056C476.483 61.8347 472.685 66.528 465.091 71.136C458.349 75.232 452.675 77.28 448.067 77.28C447.384 77.28 446.787 77.1947 446.275 77.024C444.995 79.328 444.355 81.76 444.355 84.32C444.355 88.7573 446.445 90.976 450.627 90.976C454.893 90.976 460.397 88.1173 467.139 82.4C472.344 78.2187 476.781 73.7813 480.451 69.088C481.219 68.064 481.901 67.552 482.499 67.552C483.011 67.552 483.267 67.808 483.267 68.32C483.267 68.832 482.925 69.5573 482.243 70.496C479.853 73.6533 477.293 76.5547 474.562 79.2C471.832 81.8453 468.888 84.2773 465.731 86.496C459.16 91.2747 453.613 93.664 449.091 93.664ZM449.859 74.464C453.101 74.464 457.325 72.8427 462.531 69.6C464.237 68.4053 465.901 67.0827 467.523 65.632C469.229 64.096 470.595 62.56 471.619 61.024C472.728 59.488 473.283 58.1227 473.283 56.928C473.283 55.8187 472.387 55.264 470.595 55.264C468.035 55.264 464.451 57.184 459.843 61.024C457.624 62.9013 455.491 64.9493 453.443 67.168C451.395 69.3867 449.645 71.7333 448.195 74.208C448.707 74.3787 449.261 74.464 449.859 74.464ZM508.078 92.256C505.774 92.256 504.152 91.616 503.214 90.336C502.275 88.9707 501.806 87.3067 501.806 85.344C501.806 80.3947 503.512 75.104 506.926 69.472L515.118 56.16C509.315 60.4267 503.555 65.76 497.838 72.16C496.302 73.8667 494.552 75.872 492.59 78.176C490.712 80.48 488.622 83.1253 486.318 86.112C483.246 90.1227 481.411 92.128 480.814 92.128C479.619 92.128 478.638 91.616 477.87 90.592C477.102 89.4827 476.718 88.5013 476.718 87.648C476.718 86.9653 476.931 85.728 477.358 83.936C477.784 82.0587 478.296 80.4373 478.894 79.072C479.491 77.6213 480.088 76.2133 480.686 74.848C481.368 73.3973 482.008 71.9893 482.606 70.624L474.925 78.688C474.755 78.8587 474.243 79.3707 473.389 80.224C472.536 81.0773 471.853 81.504 471.341 81.504C470.915 81.504 470.701 81.2053 470.701 80.608C470.701 80.4373 470.787 80.224 470.957 79.968C471.043 79.6267 471.299 79.2427 471.725 78.816C473.005 77.536 474.328 76.1707 475.694 74.72C477.059 73.2693 478.467 71.6053 479.918 69.728C480.686 68.7893 481.838 67.3813 483.374 65.504C484.91 63.5413 486.574 61.4507 488.366 59.232C490.243 57.0133 491.992 54.9653 493.614 53.088C494.04 52.4907 494.51 52.1067 495.022 51.936C495.534 51.68 495.875 51.552 496.046 51.552C498.35 51.552 499.502 52.448 499.502 54.24C499.502 54.752 499.374 55.264 499.118 55.776C491.438 66.3573 486.83 74.4213 485.294 79.968C495.192 70.0693 503.128 62.6453 509.102 57.696C515.16 52.6613 519.47 50.144 522.03 50.144C523.395 50.144 524.419 50.3573 525.102 50.784C525.87 51.2107 526.254 52.0213 526.254 53.216C526.254 53.6427 526.211 53.984 526.126 54.24C525.87 54.8373 524.12 57.2267 520.878 61.408C518.915 63.7973 517.166 65.9733 515.63 67.936C514.179 69.8987 512.984 71.6053 512.046 73.056C510.51 75.4453 509.358 77.7067 508.59 79.84C507.822 81.888 507.438 83.6373 507.438 85.088C507.438 85.6853 507.523 86.4107 507.694 87.264C507.864 88.1173 508.376 88.544 509.229 88.544C511.192 88.544 514.264 86.8373 518.446 83.424C520.408 81.7173 522.243 80.0107 523.95 78.304C525.656 76.512 527.278 74.7627 528.814 73.056C529.155 72.7147 529.71 72.0747 530.478 71.136C531.246 70.112 531.715 69.6 531.886 69.6C532.227 69.6 532.398 69.9413 532.398 70.624C532.398 70.9653 532.184 71.5627 531.758 72.416C531.416 73.184 531.032 73.7813 530.606 74.208C529.667 75.3173 528.259 76.8533 526.382 78.816C524.59 80.7787 522.542 82.784 520.238 84.832C518.019 86.88 515.843 88.6293 513.71 90.08C511.576 91.5307 509.699 92.256 508.078 92.256ZM525.654 118.24C523.094 118.24 520.918 117.173 519.126 115.04C517.334 112.907 516.396 110.603 516.31 108.128C516.566 107.104 516.95 106.592 517.462 106.592C517.974 106.592 518.273 107.232 518.358 108.512C518.444 109.877 519.126 111.2 520.406 112.48C521.686 113.76 522.924 114.4 524.118 114.4C529.068 114.4 534.273 111.2 539.735 104.8C541.697 102.496 543.703 99.7653 545.751 96.608C547.884 93.536 549.932 90.0373 551.895 86.112L558.295 73.44L548.695 83.168C545.708 86.1547 543.105 88.3733 540.887 89.824C538.753 91.2747 537.089 92 535.895 92C533.847 92 531.799 91.2747 529.751 89.824C527.703 88.288 526.55 86.5387 526.294 84.576C525.441 78.0053 529.58 70.1973 538.711 61.152C547.841 52.192 555.991 47.712 563.159 47.712C565.121 47.712 566.657 48.1813 567.767 49.12C568.364 49.632 568.791 50.4 569.047 51.424C569.388 52.448 569.644 52.96 569.815 52.96C570.156 52.96 570.455 52.9173 570.711 52.832C570.967 52.6613 571.265 52.576 571.607 52.576C572.716 52.576 573.612 52.96 574.295 53.728C575.063 54.496 575.319 55.264 575.063 56.032C574.977 56.8 573.74 59.104 571.351 62.944C569.815 65.504 568.065 68.6187 566.103 72.288C564.14 75.872 562.049 79.6267 559.831 83.552C557.697 87.392 555.607 90.976 553.559 94.304C551.511 97.7173 549.676 100.491 548.055 102.624C540.204 113.035 532.737 118.24 525.654 118.24ZM534.743 89.056C539.692 89.056 546.433 83.6373 554.967 72.8L568.535 54.112C568.023 52.9173 566.956 52.32 565.335 52.32C560.044 52.32 552.961 56.5013 544.087 64.864C534.871 73.568 530.732 80.608 531.671 85.984C532.097 88.032 533.121 89.056 534.743 89.056ZM580.966 93.664C578.235 93.664 575.76 92.8107 573.541 91.104C571.323 89.312 570.214 86.9653 570.214 84.064C570.214 78.0053 573.926 71.0933 581.35 63.328C588.944 55.4773 595.728 51.552 601.702 51.552C603.664 51.552 605.243 52.1067 606.438 53.216C607.718 54.24 608.358 55.52 608.358 57.056C608.358 61.8347 604.56 66.528 596.966 71.136C590.224 75.232 584.55 77.28 579.942 77.28C579.259 77.28 578.662 77.1947 578.15 77.024C576.87 79.328 576.23 81.76 576.23 84.32C576.23 88.7573 578.32 90.976 582.502 90.976C586.768 90.976 592.272 88.1173 599.014 82.4C604.219 78.2187 608.656 73.7813 612.326 69.088C613.094 68.064 613.776 67.552 614.374 67.552C614.886 67.552 615.142 67.808 615.142 68.32C615.142 68.832 614.8 69.5573 614.118 70.496C611.728 73.6533 609.168 76.5547 606.438 79.2C603.707 81.8453 600.763 84.2773 597.606 86.496C591.035 91.2747 585.488 93.664 580.966 93.664ZM581.734 74.464C584.976 74.464 589.2 72.8427 594.406 69.6C596.112 68.4053 597.776 67.0827 599.398 65.632C601.104 64.096 602.47 62.56 603.494 61.024C604.603 59.488 605.158 58.1227 605.158 56.928C605.158 55.8187 604.262 55.264 602.47 55.264C599.91 55.264 596.326 57.184 591.718 61.024C589.499 62.9013 587.366 64.9493 585.318 67.168C583.27 69.3867 581.52 71.7333 580.07 74.208C580.582 74.3787 581.136 74.464 581.734 74.464ZM633.425 92.64C629.755 92.64 627.238 91.7013 625.873 89.824C624.507 87.8613 623.825 85.2587 623.825 82.016C623.825 78.432 624.934 74.1653 627.153 69.216C628.006 67.2533 628.902 65.504 629.841 63.968C630.779 62.3467 631.761 60.8533 632.785 59.488C632.443 59.5733 632.145 59.616 631.889 59.616C631.633 59.616 631.377 59.616 631.121 59.616C629.073 59.616 627.366 58.1653 626.001 55.264L616.529 67.552C611.494 74.1227 608.422 77.408 607.312 77.408C606.886 77.408 606.672 77.2373 606.672 76.896C606.672 76.4693 606.886 75.9147 607.312 75.232C607.569 74.72 608.081 74.0373 608.849 73.184C612.091 69.4293 615.078 65.7173 617.809 62.048C620.539 58.3787 622.801 54.7947 624.593 51.296C626.555 43.872 629.03 40.16 632.017 40.16C633.979 40.16 634.961 41.056 634.961 42.848C634.961 44.4693 633.894 46.6027 631.761 49.248C629.713 51.8933 628.689 53.2587 628.689 53.344C628.689 55.136 630.011 56.032 632.657 56.032C634.193 56.032 635.899 55.4773 637.777 54.368L641.104 52.32C641.275 52.2347 641.531 52.192 641.873 52.192C642.897 52.192 643.793 52.6187 644.561 53.472C645.329 54.3253 645.585 55.0933 645.329 55.776L636.497 66.912C631.035 73.9093 628.305 79.5413 628.305 83.808C628.305 87.648 630.182 89.568 633.937 89.568C636.497 89.568 639.227 88.8 642.129 87.264C645.115 85.728 647.974 83.8507 650.705 81.632C653.521 79.328 655.867 77.1093 657.745 74.976L660.817 71.392C660.987 71.2213 661.201 71.008 661.457 70.752C661.713 70.496 661.926 70.368 662.097 70.368C662.694 70.368 662.993 70.6667 662.993 71.264C662.993 71.4347 662.907 71.7333 662.737 72.16C662.566 72.5867 662.267 73.056 661.841 73.568L657.745 78.176C655.782 80.3947 653.35 82.656 650.449 84.96C647.633 87.1787 644.689 89.0133 641.617 90.464C638.63 91.9147 635.899 92.64 633.425 92.64Z" fill="#393939"/>
</svg>
